{"title":"Ray Donovan S01E03 720p x264 [MKV,AC3,5.1] Ehhhh","uid":8709942,"size":580480649,"categoryP":"video","categoryS":"hd___tv_shows","magnet":"?xt=urn:btih:9f15e96e953c80c479e862670a219c180ed94605&amp;dn=Ray+Donovan+S01E03+720p+x264+%5BMKV%2CAC3%2C5.1%5D+Ehhhh&amp;tr=udp%3A%2F%2Ftracker.openbittorrent.com%3A80&amp;tr=udp%3A%2F%2Fopen.demonii.com%3A1337&amp;tr=udp%3A%2F%2Ftracker.coppersurfer.tk%3A6969&amp;tr=udp%3A%2F%2Fexodus.desync.com%3A6969","seeders":1,"leechers":0,"uploader":"Ehhhhtozebec","files":-1,"time":1374215660,"description":"image\nimage\nSet in the sprawling mecca of the rich and famous, RAY DONOVAN does the dirty work for LA's top power players. The new one-hour series stars Emmy and Golden Globe Award nominee Liev Schreiber in his first lead television role as the go-to guy who makes the problems of the city's celebrities, superstar athletes, and business moguls disappear. This powerful drama unfolds when his father, played by Oscar winner Jon Voight, is unexpectedly released from prison, setting off a chain of events that shakes the Donovan family to its core.\n\nTwerk Season 1, Episode 3\n\nMickey worms his way back into the lives of Bunchy and Terry. Meanwhile, Ezra hosts a fund-raiser in honor of his late wife, but he's haunted by his past sins; and Mickey is approached by an FBI agent who is obsessed with Hollywood.\n\nMain Cast\n\nLiev Schreiber\nPaula Malcomson\nEddie Marsan\nDash Mihok\nSteven Bauer\nKatherine Moennig\nPooch Hall\nKerris Dorsey\nDevon Bagby\nJon Voight\n\nRecurring Cast\n\nJames Woods\nRosanna Arquette\nElliot Gould\n\nimage\nGeneral\n\nFormat : Matroska\nFormat version : Version 4 / Version 2\nFile size : 553 MiB\nDuration : 55mn 26s\nOverall bit rate : 1 394 Kbps\nEncoded date : UTC 2013-07-19 03:09:55\nWriting application : mkvmerge v6.2.0 ('Promised Land') built on Apr 28 2013 12:22:01\nWriting library : libebml v1.3.0 + libmatroska v1.4.0\n\nVideo\nID : 1\nFormat : AVC\nFormat/Info : Advanced Video Codec\nFormat profile : &lt;a class=&quot;__cf_email__&quot; href=&quot;/cdn-cgi/l/email-protection&quot; data-cfemail=&quot;feb6979996beb2cad0cf&quot;&gt;[email&amp;#160;protected]&lt;/a&gt;&lt;script cf-hash='f9e31' type=&quot;text/javascript&quot;&gt;\n/* &lt;![CDATA[ */!function(){try{var t=&quot;currentScript&quot;in document?document.currentScript:function(){for(var t=document.getElementsByTagName(&quot;script&quot;),e=t.length;e--;)if(t[e].getAttribute(&quot;cf-hash&quot;))return t[e]}();if(t&amp;&amp;t.previousSibling){var e,r,n,i,c=t.previousSibling,a=c.getAttribute(&quot;data-cfemail&quot;);if(a){for(e=&quot;&quot;,r=parseInt(a.substr(0,2),16),n=2;a.length-n;n+=2)i=parseInt(a.substr(n,2),16)^r,e+=String.fromCharCode(i);e=document.createTextNode(e),c.parentNode.replaceChild(e,c)}}}catch(u){}}();/* ]]&gt; */&lt;/script&gt;\nFormat settings, CABAC : Yes\nFormat settings, ReFrames : 14 frames\nCodec ID : V_MPEG4/ISO/AVC\nDuration : 55mn 26s\nBit rate : 1 010 Kbps\nWidth : 1 280 pixels\nHeight : 720 pixels\nDisplay aspect ratio : 16:9\nFrame rate mode : Constant\nFrame rate : 23.976 fps\nColor space : YUV\nChroma subsampling : 4:2:0\nBit depth : 8 bits\nScan type : Progressive\nBits/(Pixel*Frame) : 0.046\nStream size : 390 MiB (70%)\nWriting library : x264 core 130 r2273 b3065e6\n\n\nAudio\nID : 2\nFormat : AC-3\nFormat/Info : Audio Coding 3\nMode extension : CM (complete main)\nFormat settings, Endianness : Big\nCodec ID : A_AC3\nDuration : 55mn 26s\nBit rate mode : Constant\nBit rate : 384 Kbps\nChannel(s) : 6 channels\nChannel positions : Front: L C R, Side: L R, LFE\nSampling rate : 48.0 KHz\nBit depth : 16 bits\nCompression mode : Lossy\nStream size : 152 MiB (28%)\nDefault : Yes\nForced : No\n","torrent":{"xt":"urn:btih:9f15e96e953c80c479e862670a219c180ed94605","amp;dn":"Ray+Donovan+S01E03+720p+x264+%5BMKV%2CAC3%2C5.1%5D+Ehhhh","amp;tr":["udp%3A%2F%2Ftracker.openbittorrent.com%3A80","udp%3A%2F%2Fopen.demonii.com%3A1337","udp%3A%2F%2Ftracker.coppersurfer.tk%3A6969","udp%3A%2F%2Fexodus.desync.com%3A6969"],"infoHash":"9f15e96e953c80c479e862670a219c180ed94605","infoHashBuffer":{"type":"Buffer","data":[159,21,233,110,149,60,128,196,121,232,98,103,10,33,156,24,14,217,70,5]},"announce":[],"urlList":[]}}